<svg xmlns="http://www.w3.org/2000/svg" xmlns:xlink="http://www.w3.org/1999/xlink" contentStyleType="text/css" data-diagram-type="SEQUENCE" height="972px" preserveAspectRatio="none" style="width:1317px;height:972px;background:#FFFFFF;" version="1.1" viewBox="0 0 1317 972" width="1317px" zoomAndPan="magnify"><title>Overall RAG Flow - Chat UI, Backend, Ingestion, PGVector, Gemini</title><defs/><g><text fill="#000000" font-family="sans-serif" font-size="14" font-weight="bold" lengthAdjust="spacing" textLength="442.6406" x="433.1931" y="29.5332">Overall RAG Flow - Chat UI, Backend, Ingestion, PGVector, Gemini</text><g><title>Chat UI</title><rect fill="#FFFFFF" height="30.3516" style="stroke:#181818;stroke-width:1;" width="10" x="129.9229" y="197.9219"/></g><g><title>RAG Backend</title><rect fill="#FFFFFF" height="255.8125" style="stroke:#181818;stroke-width:1;" width="10" x="334.5117" y="228.2734"/></g><g><title>Embedding Service</title><rect fill="#FFFFFF" height="30.3516" style="stroke:#181818;stroke-width:1;" width="10" x="588.5405" y="258.625"/></g><g><title>Embedding Service</title><rect fill="#FFFFFF" height="30.3516" style="stroke:#181818;stroke-width:1;" width="10" x="588.5405" y="728.5469"/></g><g><title>PGVector DB</title><rect fill="#FFFFFF" height="30.3516" style="stroke:#181818;stroke-width:1;" width="10" x="715.2539" y="319.3281"/></g><g><title>PGVector DB</title><rect fill="#FFFFFF" height="30.3516" style="stroke:#181818;stroke-width:1;" width="10" x="715.2539" y="789.25"/></g><g><title>Gemini LLM</title><rect fill="#FFFFFF" height="30.3516" style="stroke:#181818;stroke-width:1;" width="10" x="819.002" y="423.3828"/></g><g><title>Document Ingestion</title><rect fill="#FFFFFF" height="169.7578" style="stroke:#181818;stroke-width:1;" width="10" x="1120.7461" y="649.8438"/></g><g><title>User</title><rect fill="#000000" fill-opacity="0.00000" height="769.0859" width="8" x="18.7793" y="121.2188"/><line style="stroke:#181818;stroke-width:0.5;stroke-dasharray:5,5;" x1="22" x2="22" y1="121.2188" y2="890.3047"/></g><g><title>Chat UI</title><rect fill="#000000" fill-opacity="0.00000" height="769.0859" width="8" x="130.9229" y="121.2188"/><line style="stroke:#181818;stroke-width:0.5;stroke-dasharray:5,5;" x1="134.1333" x2="134.1333" y1="121.2188" y2="890.3047"/></g><g><title>RAG Backend</title><rect fill="#000000" fill-opacity="0.00000" height="769.0859" width="8" x="335.5117" y="121.2188"/><line style="stroke:#181818;stroke-width:0.5;stroke-dasharray:5,5;" x1="339.1567" x2="339.1567" y1="121.2188" y2="890.3047"/></g><g><title>Embedding Service</title><rect fill="#000000" fill-opacity="0.00000" height="769.0859" width="8" x="589.5405" y="121.2188"/><line style="stroke:#181818;stroke-width:0.5;stroke-dasharray:5,5;" x1="592.8408" x2="592.8408" y1="121.2188" y2="890.3047"/></g><g><title>PGVector DB</title><rect fill="#000000" fill-opacity="0.00000" height="769.0859" width="8" x="716.2539" y="121.2188"/><line style="stroke:#181818;stroke-width:0.5;stroke-dasharray:5,5;" x1="720.2402" x2="720.2402" y1="121.2188" y2="890.3047"/></g><g><title>Gemini LLM</title><rect fill="#000000" fill-opacity="0.00000" height="769.0859" width="8" x="820.002" y="121.2188"/><line style="stroke:#181818;stroke-width:0.5;stroke-dasharray:5,5;" x1="823.2676" x2="823.2676" y1="121.2188" y2="890.3047"/></g><g><title>Document Ingestion</title><rect fill="#000000" fill-opacity="0.00000" height="769.0859" width="8" x="1121.7461" y="121.2188"/><line style="stroke:#181818;stroke-width:0.5;stroke-dasharray:5,5;" x1="1124.9258" x2="1124.9258" y1="121.2188" y2="890.3047"/></g><g class="participant participant-head" data-participant="User"><text fill="#000000" font-family="sans-serif" font-size="14" lengthAdjust="spacing" textLength="29.5586" x="5" y="118.1426">User</text><ellipse cx="22.7793" cy="52.1094" fill="#E2E2F0" rx="8" ry="8" style="stroke:#181818;stroke-width:0.5;"/><path d="M22.7793,60.1094 L22.7793,87.1094 M9.7793,68.1094 L35.7793,68.1094 M22.7793,87.1094 L9.7793,102.1094 M22.7793,87.1094 L35.7793,102.1094" fill="none" style="stroke:#181818;stroke-width:0.5;"/></g><g class="participant participant-tail" data-participant="User"><text fill="#000000" font-family="sans-serif" font-size="14" lengthAdjust="spacing" textLength="29.5586" x="5" y="903.8379">User</text><ellipse cx="22.7793" cy="915.4141" fill="#E2E2F0" rx="8" ry="8" style="stroke:#181818;stroke-width:0.5;"/><path d="M22.7793,923.4141 L22.7793,950.4141 M9.7793,931.4141 L35.7793,931.4141 M22.7793,950.4141 L9.7793,965.4141 M22.7793,950.4141 L35.7793,965.4141" fill="none" style="stroke:#181818;stroke-width:0.5;"/></g><g class="participant participant-head" data-participant="ChatUI"><rect fill="#E2E2F0" height="49.2188" rx="2.5" ry="2.5" style="stroke:#181818;stroke-width:0.5;" width="71.5791" x="99.1333" y="71"/><text fill="#000000" font-family="sans-serif" font-size="14" lengthAdjust="spacing" textLength="47.4619" x="111.1919" y="92.5332">Chat UI</text><text fill="#000000" font-family="sans-serif" font-size="14" lengthAdjust="spacing" textLength="57.5791" x="106.1333" y="110.1426">(Angular)</text></g><g class="participant participant-tail" data-participant="ChatUI"><rect fill="#E2E2F0" height="49.2188" rx="2.5" ry="2.5" style="stroke:#181818;stroke-width:0.5;" width="71.5791" x="99.1333" y="889.3047"/><text fill="#000000" font-family="sans-serif" font-size="14" lengthAdjust="spacing" textLength="47.4619" x="111.1919" y="910.8379">Chat UI</text><text fill="#000000" font-family="sans-serif" font-size="14" lengthAdjust="spacing" textLength="57.5791" x="106.1333" y="928.4473">(Angular)</text></g><g class="participant participant-head" data-participant="Backend"><a href="demoragbackendservice/rag_service.svg" target="_top" title="demoragbackendservice/rag_service.svg" xlink:actuate="onRequest" xlink:href="demoragbackendservice/rag_service.svg" xlink:show="new" xlink:title="demoragbackendservice/rag_service.svg" xlink:type="simple"><rect fill="#E2E2F0" height="49.2188" rx="2.5" ry="2.5" style="stroke:#181818;stroke-width:0.5;" width="102.71" x="288.1567" y="71"/><text fill="#000000" font-family="sans-serif" font-size="14" lengthAdjust="spacing" textLength="88.71" x="295.1567" y="92.5332">RAG Backend</text><text fill="#000000" font-family="sans-serif" font-size="14" lengthAdjust="spacing" textLength="64.5791" x="307.2222" y="110.1426">(demorag)</text></a></g><g class="participant participant-tail" data-participant="Backend"><a href="demoragbackendservice/rag_service.svg" target="_top" title="demoragbackendservice/rag_service.svg" xlink:actuate="onRequest" xlink:href="demoragbackendservice/rag_service.svg" xlink:show="new" xlink:title="demoragbackendservice/rag_service.svg" xlink:type="simple"><rect fill="#E2E2F0" height="49.2188" rx="2.5" ry="2.5" style="stroke:#181818;stroke-width:0.5;" width="102.71" x="288.1567" y="889.3047"/><text fill="#000000" font-family="sans-serif" font-size="14" lengthAdjust="spacing" textLength="88.71" x="295.1567" y="910.8379">RAG Backend</text><text fill="#000000" font-family="sans-serif" font-size="14" lengthAdjust="spacing" textLength="64.5791" x="307.2222" y="928.4473">(demorag)</text></a></g><g class="participant participant-head" data-participant="Embedding"><rect fill="#E2E2F0" height="31.6094" rx="2.5" ry="2.5" style="stroke:#181818;stroke-width:0.5;" width="135.3994" x="525.8408" y="88.6094"/><text fill="#000000" font-family="sans-serif" font-size="14" lengthAdjust="spacing" textLength="121.3994" x="532.8408" y="110.1426">Embedding Service</text></g><g class="participant participant-tail" data-participant="Embedding"><rect fill="#E2E2F0" height="31.6094" rx="2.5" ry="2.5" style="stroke:#181818;stroke-width:0.5;" width="135.3994" x="525.8408" y="889.3047"/><text fill="#000000" font-family="sans-serif" font-size="14" lengthAdjust="spacing" textLength="121.3994" x="532.8408" y="910.8379">Embedding Service</text></g><g class="participant participant-head" data-participant="PGVector"><rect fill="#E2E2F0" height="49.2188" rx="2.5" ry="2.5" style="stroke:#181818;stroke-width:0.5;" width="98.0273" x="671.2402" y="71"/><text fill="#000000" font-family="sans-serif" font-size="14" lengthAdjust="spacing" textLength="84.0273" x="678.2402" y="92.5332">PGVector DB</text><text fill="#000000" font-family="sans-serif" font-size="14" lengthAdjust="spacing" textLength="63.0205" x="688.7437" y="110.1426">(pgvector)</text></g><g class="participant participant-tail" data-participant="PGVector"><rect fill="#E2E2F0" height="49.2188" rx="2.5" ry="2.5" style="stroke:#181818;stroke-width:0.5;" width="98.0273" x="671.2402" y="889.3047"/><text fill="#000000" font-family="sans-serif" font-size="14" lengthAdjust="spacing" textLength="84.0273" x="678.2402" y="910.8379">PGVector DB</text><text fill="#000000" font-family="sans-serif" font-size="14" lengthAdjust="spacing" textLength="63.0205" x="688.7437" y="928.4473">(pgvector)</text></g><g class="participant participant-head" data-participant="Gemini"><rect fill="#E2E2F0" height="31.6094" rx="2.5" ry="2.5" style="stroke:#181818;stroke-width:0.5;" width="89.4688" x="779.2676" y="88.6094"/><text fill="#000000" font-family="sans-serif" font-size="14" lengthAdjust="spacing" textLength="75.4688" x="786.2676" y="110.1426">Gemini LLM</text></g><g class="participant participant-tail" data-participant="Gemini"><rect fill="#E2E2F0" height="31.6094" rx="2.5" ry="2.5" style="stroke:#181818;stroke-width:0.5;" width="89.4688" x="779.2676" y="889.3047"/><text fill="#000000" font-family="sans-serif" font-size="14" lengthAdjust="spacing" textLength="75.4688" x="786.2676" y="910.8379">Gemini LLM</text></g><g class="participant participant-head" data-participant="Ingestion"><a href="documentingestionservice/document_streaming_ingestion.svg" target="_top" title="documentingestionservice/document_streaming_ingestion.svg" xlink:actuate="onRequest" xlink:href="documentingestionservice/document_streaming_ingestion.svg" xlink:show="new" xlink:title="documentingestionservice/document_streaming_ingestion.svg" xlink:type="simple"><rect fill="#E2E2F0" height="49.2188" rx="2.5" ry="2.5" style="stroke:#181818;stroke-width:0.5;" width="211.6406" x="1019.9258" y="71"/><text fill="#000000" font-family="sans-serif" font-size="14" lengthAdjust="spacing" textLength="124.5166" x="1063.4878" y="92.5332">Document Ingestion</text><text fill="#000000" font-family="sans-serif" font-size="14" lengthAdjust="spacing" textLength="197.6406" x="1026.9258" y="110.1426">(document-streaming-ingestion)</text></a></g><g class="participant participant-tail" data-participant="Ingestion"><a href="documentingestionservice/document_streaming_ingestion.svg" target="_top" title="documentingestionservice/document_streaming_ingestion.svg" xlink:actuate="onRequest" xlink:href="documentingestionservice/document_streaming_ingestion.svg" xlink:show="new" xlink:title="documentingestionservice/document_streaming_ingestion.svg" xlink:type="simple"><rect fill="#E2E2F0" height="49.2188" rx="2.5" ry="2.5" style="stroke:#181818;stroke-width:0.5;" width="211.6406" x="1019.9258" y="889.3047"/><text fill="#000000" font-family="sans-serif" font-size="14" lengthAdjust="spacing" textLength="124.5166" x="1063.4878" y="910.8379">Document Ingestion</text><text fill="#000000" font-family="sans-serif" font-size="14" lengthAdjust="spacing" textLength="197.6406" x="1026.9258" y="928.4473">(document-streaming-ingestion)</text></a></g><g><title>Chat UI</title><rect fill="#FFFFFF" height="30.3516" style="stroke:#181818;stroke-width:1;" width="10" x="129.9229" y="197.9219"/></g><g><title>RAG Backend</title><rect fill="#FFFFFF" height="255.8125" style="stroke:#181818;stroke-width:1;" width="10" x="334.5117" y="228.2734"/></g><g><title>Embedding Service</title><rect fill="#FFFFFF" height="30.3516" style="stroke:#181818;stroke-width:1;" width="10" x="588.5405" y="258.625"/></g><g><title>Embedding Service</title><rect fill="#FFFFFF" height="30.3516" style="stroke:#181818;stroke-width:1;" width="10" x="588.5405" y="728.5469"/></g><g><title>PGVector DB</title><rect fill="#FFFFFF" height="30.3516" style="stroke:#181818;stroke-width:1;" width="10" x="715.2539" y="319.3281"/></g><g><title>PGVector DB</title><rect fill="#FFFFFF" height="30.3516" style="stroke:#181818;stroke-width:1;" width="10" x="715.2539" y="789.25"/></g><g><title>Gemini LLM</title><rect fill="#FFFFFF" height="30.3516" style="stroke:#181818;stroke-width:1;" width="10" x="819.002" y="423.3828"/></g><g><title>Document Ingestion</title><rect fill="#FFFFFF" height="169.7578" style="stroke:#181818;stroke-width:1;" width="10" x="1120.7461" y="649.8438"/></g><rect fill="#EEEEEE" height="3" style="stroke:#EEEEEE;stroke-width:1;" width="1310.0269" x="0" y="152.3945"/><line style="stroke:#000000;stroke-width:1;" x1="0" x2="1310.0269" y1="152.3945" y2="152.3945"/><line style="stroke:#000000;stroke-width:1;" x1="0" x2="1310.0269" y1="155.3945" y2="155.3945"/><rect fill="#EEEEEE" height="24.3516" style="stroke:#000000;stroke-width:2;" width="115.1372" x="597.4448" y="141.2188"/><text fill="#000000" font-family="sans-serif" font-size="13" font-weight="bold" lengthAdjust="spacing" textLength="97.5254" x="603.4448" y="158.7139">User query flow</text><g class="message" data-participant-1="User" data-participant-2="ChatUI"><polygon fill="#181818" points="117.9229,193.9219,127.9229,197.9219,117.9229,201.9219,121.9229,197.9219" style="stroke:#181818;stroke-width:1;"/><line style="stroke:#181818;stroke-width:1;" x1="22.7793" x2="123.9229" y1="197.9219" y2="197.9219"/><text fill="#000000" font-family="sans-serif" font-size="13" lengthAdjust="spacing" textLength="67.2026" x="29.7793" y="193.0654">Enter query</text></g><g class="message" data-participant-1="ChatUI" data-participant-2="Backend"><polygon fill="#181818" points="322.5117,224.2734,332.5117,228.2734,322.5117,232.2734,326.5117,228.2734" style="stroke:#181818;stroke-width:1;"/><line style="stroke:#181818;stroke-width:1;" x1="134.9229" x2="328.5117" y1="228.2734" y2="228.2734"/><text fill="#000000" font-family="sans-serif" font-size="13" lengthAdjust="spacing" textLength="175.5889" x="141.9229" y="223.417">POST /api/rag/v1/ask { query }</text></g><g class="message" data-participant-1="Backend" data-participant-2="Embedding"><polygon fill="#181818" points="576.5405,254.625,586.5405,258.625,576.5405,262.625,580.5405,258.625" style="stroke:#181818;stroke-width:1;"/><line style="stroke:#181818;stroke-width:1;" x1="344.5117" x2="582.5405" y1="258.625" y2="258.625"/><text fill="#000000" font-family="sans-serif" font-size="13" lengthAdjust="spacing" textLength="158.2661" x="351.5117" y="253.7686">generateEmbedding(query)</text></g><g class="message" data-participant-1="Embedding" data-participant-2="Backend"><polygon fill="#181818" points="355.5117,284.9766,345.5117,288.9766,355.5117,292.9766,351.5117,288.9766" style="stroke:#181818;stroke-width:1;"/><line style="stroke:#181818;stroke-width:1;stroke-dasharray:2,2;" x1="349.5117" x2="592.5405" y1="288.9766" y2="288.9766"/><text fill="#000000" font-family="sans-serif" font-size="13" lengthAdjust="spacing" textLength="64.3271" x="361.5117" y="284.1201">embedding</text></g><g class="message" data-participant-1="Backend" data-participant-2="PGVector"><polygon fill="#181818" points="703.2539,315.3281,713.2539,319.3281,703.2539,323.3281,707.2539,319.3281" style="stroke:#181818;stroke-width:1;"/><line style="stroke:#181818;stroke-width:1;" x1="344.5117" x2="709.2539" y1="319.3281" y2="319.3281"/><text fill="#000000" font-family="sans-serif" font-size="13" lengthAdjust="spacing" textLength="193.2734" x="351.5117" y="314.4717">similaritySearch(embedding, k=5)</text></g><g class="message" data-participant-1="PGVector" data-participant-2="Backend"><polygon fill="#181818" points="355.5117,345.6797,345.5117,349.6797,355.5117,353.6797,351.5117,349.6797" style="stroke:#181818;stroke-width:1;"/><line style="stroke:#181818;stroke-width:1;stroke-dasharray:2,2;" x1="349.5117" x2="719.2539" y1="349.6797" y2="349.6797"/><text fill="#000000" font-family="sans-serif" font-size="13" lengthAdjust="spacing" textLength="94.6689" x="361.5117" y="344.8232">relevant_chunks</text></g><g class="message" data-participant-1="Backend" data-participant-2="Backend"><line style="stroke:#181818;stroke-width:1;" x1="344.5117" x2="386.5117" y1="380.0313" y2="380.0313"/><line style="stroke:#181818;stroke-width:1;" x1="386.5117" x2="386.5117" y1="380.0313" y2="393.0313"/><line style="stroke:#181818;stroke-width:1;" x1="345.5117" x2="386.5117" y1="393.0313" y2="393.0313"/><polygon fill="#181818" points="355.5117,389.0313,345.5117,393.0313,355.5117,397.0313,351.5117,393.0313" style="stroke:#181818;stroke-width:1;"/><text fill="#000000" font-family="sans-serif" font-size="13" lengthAdjust="spacing" textLength="220.0288" x="351.5117" y="375.1748">buildPrompt(query + relevant_chunks)</text></g><g class="message" data-participant-1="Backend" data-participant-2="Gemini"><polygon fill="#181818" points="807.002,419.3828,817.002,423.3828,807.002,427.3828,811.002,423.3828" style="stroke:#181818;stroke-width:1;"/><line style="stroke:#181818;stroke-width:1;" x1="344.5117" x2="813.002" y1="423.3828" y2="423.3828"/><text fill="#000000" font-family="sans-serif" font-size="13" lengthAdjust="spacing" textLength="158.9771" x="351.5117" y="418.5264">generateResponse(prompt)</text></g><g class="message" data-participant-1="Gemini" data-participant-2="Backend"><polygon fill="#181818" points="355.5117,449.7344,345.5117,453.7344,355.5117,457.7344,351.5117,453.7344" style="stroke:#181818;stroke-width:1;"/><line style="stroke:#181818;stroke-width:1;stroke-dasharray:2,2;" x1="349.5117" x2="823.002" y1="453.7344" y2="453.7344"/><text fill="#000000" font-family="sans-serif" font-size="13" lengthAdjust="spacing" textLength="86.7344" x="361.5117" y="448.8779">generated_text</text></g><g class="message" data-participant-1="Backend" data-participant-2="ChatUI"><polygon fill="#181818" points="145.9229,480.0859,135.9229,484.0859,145.9229,488.0859,141.9229,484.0859" style="stroke:#181818;stroke-width:1;"/><line style="stroke:#181818;stroke-width:1;stroke-dasharray:2,2;" x1="139.9229" x2="338.5117" y1="484.0859" y2="484.0859"/><text fill="#000000" font-family="sans-serif" font-size="13" lengthAdjust="spacing" textLength="105.5107" x="151.9229" y="479.2295">200 OK { answer }</text></g><g class="message" data-participant-1="ChatUI" data-participant-2="User"><polygon fill="#181818" points="33.7793,510.4375,23.7793,514.4375,33.7793,518.4375,29.7793,514.4375" style="stroke:#181818;stroke-width:1;"/><line style="stroke:#181818;stroke-width:1;" x1="27.7793" x2="133.9229" y1="514.4375" y2="514.4375"/><text fill="#000000" font-family="sans-serif" font-size="13" lengthAdjust="spacing" textLength="88.1436" x="39.7793" y="509.5811">Display answer</text></g><rect fill="#EEEEEE" height="3" style="stroke:#EEEEEE;stroke-width:1;" width="1310.0269" x="0" y="543.6133"/><line style="stroke:#000000;stroke-width:1;" x1="0" x2="1310.0269" y1="543.6133" y2="543.6133"/><line style="stroke:#000000;stroke-width:1;" x1="0" x2="1310.0269" y1="546.6133" y2="546.6133"/><rect fill="#EEEEEE" height="24.3516" style="stroke:#000000;stroke-width:2;" width="223.1108" x="543.458" y="532.4375"/><text fill="#000000" font-family="sans-serif" font-size="13" font-weight="bold" lengthAdjust="spacing" textLength="205.499" x="549.458" y="549.9326">Document ingestion -&gt; vector DB</text><path d="M1057,571.7891 L1057,613.7891 L1193,613.7891 L1193,581.7891 L1183,571.7891 L1057,571.7891" fill="#FEFFDD" style="stroke:#181818;stroke-width:0.5;"/><path d="M1183,571.7891 L1183,581.7891 L1193,581.7891 L1183,571.7891" fill="#FEFFDD" style="stroke:#181818;stroke-width:0.5;"/><text fill="#000000" font-family="sans-serif" font-size="13" lengthAdjust="spacing" textLength="115.6226" x="1063" y="590.2842">watches input folder</text><text fill="#000000" font-family="sans-serif" font-size="13" lengthAdjust="spacing" textLength="91.0254" x="1063" y="606.6357">(pdf, docx, xlsx)</text><g class="message" data-participant-1="Ingestion" data-participant-2="Ingestion"><line style="stroke:#181818;stroke-width:1;" x1="1125.7461" x2="1172.7461" y1="636.8438" y2="636.8438"/><line style="stroke:#181818;stroke-width:1;" x1="1172.7461" x2="1172.7461" y1="636.8438" y2="649.8438"/><line style="stroke:#181818;stroke-width:1;" x1="1131.7461" x2="1172.7461" y1="649.8438" y2="649.8438"/><polygon fill="#181818" points="1141.7461,645.8438,1131.7461,649.8438,1141.7461,653.8438,1137.7461,649.8438" style="stroke:#181818;stroke-width:1;"/><text fill="#000000" font-family="sans-serif" font-size="13" lengthAdjust="spacing" textLength="96.0845" x="1137.7461" y="631.9873">streamRead(file)</text></g><g class="message" data-participant-1="Ingestion" data-participant-2="Ingestion"><line style="stroke:#181818;stroke-width:1;" x1="1130.7461" x2="1172.7461" y1="685.1953" y2="685.1953"/><line style="stroke:#181818;stroke-width:1;" x1="1172.7461" x2="1172.7461" y1="685.1953" y2="698.1953"/><line style="stroke:#181818;stroke-width:1;" x1="1131.7461" x2="1172.7461" y1="698.1953" y2="698.1953"/><polygon fill="#181818" points="1141.7461,694.1953,1131.7461,698.1953,1141.7461,702.1953,1137.7461,698.1953" style="stroke:#181818;stroke-width:1;"/><text fill="#000000" font-family="sans-serif" font-size="13" lengthAdjust="spacing" textLength="150.2808" x="1137.7461" y="680.3389">chunkText(streamedData)</text></g><g class="message" data-participant-1="Ingestion" data-participant-2="Embedding"><polygon fill="#181818" points="609.5405,724.5469,599.5405,728.5469,609.5405,732.5469,605.5405,728.5469" style="stroke:#181818;stroke-width:1;"/><line style="stroke:#181818;stroke-width:1;" x1="603.5405" x2="1119.7461" y1="728.5469" y2="728.5469"/><text fill="#000000" font-family="sans-serif" font-size="13" lengthAdjust="spacing" textLength="160.437" x="615.5405" y="723.6904">generateEmbedding(chunk)</text></g><g class="message" data-participant-1="Embedding" data-participant-2="Ingestion"><polygon fill="#181818" points="1108.7461,754.8984,1118.7461,758.8984,1108.7461,762.8984,1112.7461,758.8984" style="stroke:#181818;stroke-width:1;"/><line style="stroke:#181818;stroke-width:1;stroke-dasharray:2,2;" x1="593.5405" x2="1114.7461" y1="758.8984" y2="758.8984"/><text fill="#000000" font-family="sans-serif" font-size="13" lengthAdjust="spacing" textLength="106.2471" x="600.5405" y="754.042">chunk_embedding</text></g><g class="message" data-participant-1="Ingestion" data-participant-2="PGVector"><polygon fill="#181818" points="736.2539,785.25,726.2539,789.25,736.2539,793.25,732.2539,789.25" style="stroke:#181818;stroke-width:1;"/><line style="stroke:#181818;stroke-width:1;" x1="730.2539" x2="1119.7461" y1="789.25" y2="789.25"/><text fill="#000000" font-family="sans-serif" font-size="13" lengthAdjust="spacing" textLength="376.4922" x="742.2539" y="784.3936">storeChunkWithEmbedding(metadata, chunk, chunk_embedding)</text></g><g class="message" data-participant-1="PGVector" data-participant-2="Ingestion"><polygon fill="#181818" points="1113.7461,815.6016,1123.7461,819.6016,1113.7461,823.6016,1117.7461,819.6016" style="stroke:#181818;stroke-width:1;"/><line style="stroke:#181818;stroke-width:1;stroke-dasharray:2,2;" x1="720.2539" x2="1119.7461" y1="819.6016" y2="819.6016"/><text fill="#000000" font-family="sans-serif" font-size="13" lengthAdjust="spacing" textLength="20.23" x="727.2539" y="814.7451">ack</text></g><path d="M725,832.6016 L725,874.6016 L1031,874.6016 L1031,842.6016 L1021,832.6016 L725,832.6016" fill="#FEFFDD" style="stroke:#181818;stroke-width:0.5;"/><path d="M1021,832.6016 L1021,842.6016 L1031,842.6016 L1021,832.6016" fill="#FEFFDD" style="stroke:#181818;stroke-width:0.5;"/><text fill="#000000" font-family="sans-serif" font-size="13" lengthAdjust="spacing" textLength="285.8096" x="731" y="851.0967">PGVector holds document_chunks + embeddings</text><text fill="#000000" font-family="sans-serif" font-size="13" lengthAdjust="spacing" textLength="168.3652" x="731" y="867.4482">used by Backend for retrieval</text><!--SRC=[ZLJBRjim4BphAnOvsQXSfmLwCU02IPm6HbCaY9Fsa0O6BQqbmdgLf1GRGV-zIuaYAVUHdcojPcU7d5afhZA4cmO5opAuExk2Jrdv31EuI9c2XsK8vopQOH67i2mIb8gNHGYtLrynKgK8uGfpNl0WOFeH7YIAe692yOXNh51mOcY-5wEp8gap9iOdm6JB_h0SGlLmCupWCUQbO4a7DsLuV3JbJLUWSGsFS4gLjVd_LZR9qzEG-JBVO1pp8e5L1sf9RNK8xiy6YtEIKILD-zJfwDyDExexWElhBot8NCa0iYYZEaVwPozH7z4K9r89PDIKJ7Z_kfjdqVha1cqX_U7x5sjBixOOSnl1VDvw0pzg50VOQeldyw0jJJuQDs06buNgGTfHtZ25lLS6HF3UZHdStgpkOSeghXsODk-cJExWnKpv6SHuJE9O3KdGan6lisa62HOKIOMsDcf9nux0sUVw9WDrQ16U4DVcZxQcpq3od5DEkJgia8ae7LcQ47Rp3vu2cmRRFPmlCCE6x5z7QLtifA_2jleYNEUcvbbyAygyKjsvuSqnszZlD0bqrtQ7ij896LKjYIVQfDDq30NttV5QuLxvUlirjpFzrBm_FOMRp-GxA-GpvMTWVE-pbvysTZDOS5bbx62wsepQDR41rlYctqUTsQ8aqfA-LsuvPl3CL9IYfBQgLh0jinY5Njvu6mAjnpw4VIRtus3fqxe7ChrTdJjayMZBC_JkowB-tjmQSaytDkfeC5umnOwc_JlSBSL_XFktiUlNGZuGuSUSVl12KtpZAdLASbGi9lbXnnyUZtar_xv4ylwFgVTgxduxQmLFKWNbre71oKx9MGdsWzTj0ks6LIS9NKkCONEmkTvIeq0bEArF5kYA7XJy0W00]--></g></svg>